<svg width="104" height="105" fill="none" xmlns="http://www.w3.org/2000/svg"><g filter="url(#filter0_d)"><path fill="#3D55F9" d="M24 12h56v56H24z"/><path d="M70.94 19.817c-2.486-4.982-8.539-7.005-13.52-4.52a10.077 10.077 0 00-2.636 1.9l-1.991 1.99a1.12 1.12 0 01-1.584 0l-1.993-1.99c-3.94-3.94-10.326-3.94-14.265 0-3.939 3.938-3.939 10.325 0 14.264l14.986 15.633a2.858 2.858 0 004.126 0L69.049 31.46a10.08 10.08 0 001.89-11.643zM34.358 49.712a3.136 3.136 0 00-1.026 4.084l2.988 4.966a1.12 1.12 0 11-1.92 1.156l-3.028-5.04a5.538 5.538 0 01.28-5.566 1.12 1.12 0 00.188-.619V42.24a3.36 3.36 0 00-6.72 0v11.585c0 2.29.78 4.511 2.21 6.299l5.966 7.455c.212.265.534.42.874.42h8.87a1.12 1.12 0 001.12-1.12v-6.742a10.062 10.062 0 00-1.696-5.6c-4.227-4.401-5.548-6.531-8.106-4.825zM75.52 38.88a3.36 3.36 0 00-3.36 3.36v6.453c0 .22.066.436.188.619a5.537 5.537 0 01.28 5.566l-3.028 5.04a1.12 1.12 0 11-1.92-1.156l2.988-4.966a3.136 3.136 0 00-1.026-4.084c-2.558-1.706-3.88.424-8.106 4.832a10.062 10.062 0 00-1.696 5.6v6.736c0 .618.502 1.12 1.12 1.12h8.87c.34 0 .662-.156.874-.421l5.967-7.457a10.08 10.08 0 002.209-6.3V42.24a3.36 3.36 0 00-3.36-3.36z" fill="#fff"/></g><defs><filter id="filter0_d" x="0" y=".571" width="104" height="104" filterUnits="userSpaceOnUse" color-interpolation-filters="sRGB"><feFlood flood-opacity="0" result="BackgroundImageFix"/><feColorMatrix in="SourceAlpha" values="0 0 0 0 0 0 0 0 0 0 0 0 0 0 0 0 0 0 127 0" result="hardAlpha"/><feOffset dy="12.571"/><feGaussianBlur stdDeviation="12"/><feColorMatrix values="0 0 0 0 0.239216 0 0 0 0 0.333333 0 0 0 0 0.976471 0 0 0 0.2 0"/><feBlend in2="BackgroundImageFix" result="effect1_dropShadow"/><feBlend in="SourceGraphic" in2="effect1_dropShadow" result="shape"/></filter></defs></svg>