<svg width="104" height="105" fill="none" xmlns="http://www.w3.org/2000/svg"><g clip-path="url(#clip0)" filter="url(#filter0_d)"><path fill="#3D55F9" d="M24 12h56v56H24z"/><path d="M56.987 14.05a7 7 0 11-9.9 9.9 7 7 0 019.9-9.9zm21.755 18.964a3.5 3.5 0 00-4.929.447l-.001.001a5.457 5.457 0 01-4.144 1.962h-.054a5.44 5.44 0 01-4.123-1.887c-1.778-2.049-1.778-2.068-1.936-2.224A6.174 6.174 0 0059.17 29.5H44.83a6.165 6.165 0 00-4.382 1.813c-.161.156-.187.205-1.937 2.224a5.446 5.446 0 01-4.125 1.887h-.054a5.456 5.456 0 01-4.144-1.957 3.5 3.5 0 00-5.367 4.484 12.45 12.45 0 009.446 4.473h.119a12.266 12.266 0 008.484-3.357.583.583 0 01.982.424l.03 12.269c.002.494.314.933.78 1.097l6.563 2.317c.502.177 1.05.177 1.552 0l6.561-2.317c.466-.164.778-.603.78-1.097l.03-12.273a.583.583 0 01.982-.425 12.26 12.26 0 008.484 3.355h.12a12.437 12.437 0 009.454-4.482 3.5 3.5 0 00-.446-4.921zM65.697 53.095l-8.634 3.047a.579.579 0 00-.387.548c0 .247.155.467.387.55L62.045 59c.81.283 1.546.743 2.156 1.347.318.314.787.419 1.209.27l2.613-.933a3.5 3.5 0 00-2.333-6.599l.007.01zm-4.427 8.106l-22.964-8.106a3.5 3.5 0 10-2.334 6.599L58.937 67.8a3.5 3.5 0 002.333-6.599z" fill="#fff"/></g><defs><clipPath id="clip0"><path fill="#fff" transform="translate(24 12)" d="M0 0h56v56H0z"/></clipPath><filter id="filter0_d" x="0" y=".571" width="104" height="104" filterUnits="userSpaceOnUse" color-interpolation-filters="sRGB"><feFlood flood-opacity="0" result="BackgroundImageFix"/><feColorMatrix in="SourceAlpha" values="0 0 0 0 0 0 0 0 0 0 0 0 0 0 0 0 0 0 127 0" result="hardAlpha"/><feOffset dy="12.571"/><feGaussianBlur stdDeviation="12"/><feColorMatrix values="0 0 0 0 0.239216 0 0 0 0 0.333333 0 0 0 0 0.976471 0 0 0 0.2 0"/><feBlend in2="BackgroundImageFix" result="effect1_dropShadow"/><feBlend in="SourceGraphic" in2="effect1_dropShadow" result="shape"/></filter></defs></svg>