<svg width="48" height="48" fill="none" xmlns="http://www.w3.org/2000/svg"><path d="M22.556 12.268a.5.5 0 00-.232-.494c-2.524-1.574-8.258-4.056-19.31-4.2a1 1 0 00-1.014 1v31.53a1 1 0 00.986 1c10.302.132 15.988 2.3 18.77 3.864a.494.494 0 00.744-.432V12.892c.006-.21.024-.417.056-.624zM38.5 34.892a1.502 1.502 0 01-1.248 1.478 16.84 16.84 0 00-8.584 4.516 16.026 16.026 0 00-2.054 2.858.5.5 0 00.656.692 41.983 41.983 0 0117.744-3.332 1 1 0 00.986-1V8.574a1 1 0 00-1.014-1 64.12 64.12 0 00-6.04.352.5.5 0 00-.446.498v26.468z" fill="#3D55F9"/><path d="M35.136 33.8a.502.502 0 00.364-.482V3.468a.5.5 0 00-.672-.47 15.358 15.358 0 00-6.16 3.89 10.91 10.91 0 00-3.168 6.028V38.62a.5.5 0 00.876.33l.046-.052a18.646 18.646 0 018.714-5.098z" fill="#3D55F9"/><path stroke="#3D55F9" stroke-opacity=".08" d="M.5.5h47v47H.5z"/></svg>