<svg width="48" height="48" fill="none" xmlns="http://www.w3.org/2000/svg"><path d="M48 20.5a2 2 0 00-2-2H2a2 2 0 100 4h1.84c.271 0 .493.217.498.488a19.552 19.552 0 0011.436 17.38.5.5 0 01.022.9 18 18 0 00-5.664 4.6 1 1 0 00.774 1.632h26.188a1 1 0 00.774-1.632 17.98 17.98 0 00-5.666-4.6.5.5 0 01.022-.9 19.552 19.552 0 0011.438-17.38.498.498 0 01.498-.488H46a2 2 0 002-2zm-19.99-6.756a1 1 0 00.654 1.756h8.248a1 1 0 00.757-.346l8.79-10.142a2.762 2.762 0 00-3.887-3.888L28.01 13.744z" fill="#3D55F9"/><path stroke="#3D55F9" stroke-opacity=".08" d="M.5.5h47v47H.5z"/></svg>