<svg xmlns="http://www.w3.org/2000/svg" width="29.755" height="32" viewBox="0 0 29.755 32">
  <path id="Контур_8" data-name="Контур 8" d="M919.539,239a5.932,5.932,0,0,0-.072-1.017,5.225,5.225,0,0,0-3.322-4.114c-1.558-.64-3.148-1.272-4.687-1.882l-1.792-.714a.913.913,0,0,0-.707-.061.938.938,0,0,0-.432.581q-.521,1.44-1.042,2.876l-.667,1.846c-.147-.423-.284-.817-.415-1.215a.3.3,0,0,1,.025-.126c.069-.183.145-.366.219-.547.086-.208.173-.419.253-.63a.676.676,0,0,0-.667-.985c-1.032-.008-2.086-.008-3.135,0a.732.732,0,0,0-.623.288.743.743,0,0,0-.048.695l.044.12a5.594,5.594,0,0,0,.3.718.942.942,0,0,1,.023.893c-.107.253-.2.509-.288.777l-.663-1.825q-.524-1.453-1.053-2.905a.891.891,0,0,0-.419-.56.911.911,0,0,0-.707.061l-1.585.629c-1.606.638-3.268,1.3-4.891,1.973a6.09,6.09,0,0,0-1.529.92,5.2,5.2,0,0,0-1.872,4.177c0,1.223,0,2.446,0,3.67l0,1.377c0,.657.244.9.9.9h27.949c.659,0,.9-.244.9-.9V242.98Q919.544,240.987,919.539,239Zm-17.018.2h0a.724.724,0,0,0,.682-.566l.194-.562c.255-.745.518-1.514.8-2.263a1.35,1.35,0,0,0-.046-1.16c-.042-.082-.078-.171-.116-.265h1.244a3.276,3.276,0,0,0-.185.509,1.41,1.41,0,0,0,0,.737c.223.684.465,1.377.7,2.044.112.322.225.642.335.964a.721.721,0,0,0,.682.562h.008a.728.728,0,0,0,.678-.568l1.926-5.324.194-.533a.573.573,0,0,1,.021-.055l2.96,1.183c.95.381,1.9.762,2.853,1.135a3.929,3.929,0,0,1,2.493,2.449,4.868,4.868,0,0,1,.24,1.432c.023,1.124.019,2.267.015,3.375,0,.417,0,.836,0,1.253v.013H891.144c0-.032,0-.063,0-.095l0-1.236c0-1.053,0-2.143,0-3.215a3.9,3.9,0,0,1,2.518-3.87c1.417-.594,2.87-1.168,4.276-1.724q.881-.347,1.762-.7l.017.044c.063.168.126.335.187.5l.065.183q.938,2.593,1.874,5.19A.721.721,0,0,0,902.521,239.194Zm-5.051-17.923a.6.6,0,0,0-.027.065c-.017.034-.038.088-.046.1a2.1,2.1,0,0,0-.92,1.806,4.669,4.669,0,0,0,.623,2.434,2.457,2.457,0,0,0,1.811,1.3.29.29,0,0,1,.133.114q.268.448.531.9c.25.429.509.874.781,1.3a4.137,4.137,0,0,0,1.5,1.476,5.693,5.693,0,0,0,2.783.718,6.3,6.3,0,0,0,1.112-.1,4.585,4.585,0,0,0,3.31-2.211c.436-.733.827-1.394,1.217-2.078a.212.212,0,0,1,.2-.139,2.048,2.048,0,0,0,1.175-.562,4.181,4.181,0,0,0,1.2-3.345,1.914,1.914,0,0,0-.922-1.617.216.216,0,0,0-.029-.019.137.137,0,0,1,.006-.059c.107-.571.206-1.152.3-1.714l.137-.8-.1-.013a4.613,4.613,0,0,0-.861-2.655,7.206,7.206,0,0,0-2.739-2.307,8.076,8.076,0,0,0-6.072-.636,2.952,2.952,0,0,0-1.651,1.093.238.238,0,0,1-.126.029,2.861,2.861,0,0,0-2.491,1.036,5.221,5.221,0,0,0-1.133,2.177,3.483,3.483,0,0,0,.1,2.421,2.321,2.321,0,0,1,.213,1.259Zm4.423-5.893a1.247,1.247,0,0,1,.851-.762,6.3,6.3,0,0,1,4.411.078,6.733,6.733,0,0,1,2.7,1.731,3.718,3.718,0,0,1,.99,3.19,11.981,11.981,0,0,0-2.227-.581c-.2-.038-.4-.078-.606-.118-.333-.069-.667-.133-1-.194-.6-.114-1.225-.229-1.823-.385a5.882,5.882,0,0,1-3.061-1.88l-.036-.042a1.493,1.493,0,0,0-.133-.149.717.717,0,0,0-.49-.208.628.628,0,0,0-.154.019.689.689,0,0,0-.478.472c-.04.122-.08.244-.118.366-.07.217-.139.442-.221.655a3.578,3.578,0,0,1-1.92,1.9l-.067.032a1.854,1.854,0,0,1-.149-.827,3.784,3.784,0,0,1,1-2.446,1.468,1.468,0,0,1,1.64-.451A.656.656,0,0,0,901.894,215.378Zm-2.482,10.259-.055,0a1.077,1.077,0,0,1-1.088-.638,3.168,3.168,0,0,1-.432-1.861.687.687,0,0,1,.478-.661.715.715,0,0,0,.512-.756c0-.105,0-.211,0-.316,0-.143,0-.293,0-.44-.006-.1,0-.135.141-.2a5.172,5.172,0,0,0,2.219-1.695,7.47,7.47,0,0,0,.507-.863c.032-.059.061-.118.093-.177a8.347,8.347,0,0,0,4.1,1.84c1.192.215,2.394.482,3.558.739l.482.105c.451.1.581.272.581.771,0,.032,0,.065-.006.1a.7.7,0,0,0,.03.343.829.829,0,0,0,.4.5.8.8,0,0,1,.573.857,3.181,3.181,0,0,1-.558,1.878.959.959,0,0,1-.888.469.816.816,0,0,0-.808.482l-.179.322c-.4.712-.811,1.448-1.253,2.145a3.458,3.458,0,0,1-3.225,1.539h0a3.792,3.792,0,0,1-2.4-.775,5.3,5.3,0,0,1-1.2-1.545c-.3-.512-.581-1.051-.853-1.571l-.078-.147A.718.718,0,0,0,899.412,225.638Zm10.809,17.234c.568,0,1.139,0,1.708,0h1.488l.691,0,1,0c.579,0,.838-.259.838-.832q.006-1.453,0-2.9c0-.587-.246-.838-.825-.84q-2.46,0-4.918,0c-.583,0-.834.248-.836.827,0,.966,0,1.933,0,2.9C909.372,242.618,909.625,242.87,910.22,242.872Zm.522-1.35v-1.855H914.6v.223c0,.549,0,1.088-.006,1.625-1.152.006-2.305.006-3.47.006Z" transform="translate(-889.787 -212.917)"/>
</svg>
