<svg xmlns="http://www.w3.org/2000/svg" width="25.33" height="32" viewBox="0 0 25.33 32">
  <path id="Контур_9" data-name="Контур 9" d="M1122.407,217.616v-2.347h-2.366v-2.356H1104.99l-.135.158a1.93,1.93,0,0,1-.139.156l-1.312,1.316q-1.885,1.885-3.764,3.775a.878.878,0,0,0-.253.564q-.013,9.872-.008,19.743v1.211c0,.036,0,.074.006.122l.015.278h2.309v2.347h2.343v2.331h20.657v-27.3Zm-17.792-2.229v2.764h-2.764Zm-3.863,23.484V219.534h5.232v-5.242h12.691v24.579Zm2.347,2.347v-.958h16.935V216.631h.987v24.587Zm20.261,2.341h-17.918v-.954h16.943V218.972h.975Zm-20.318-8.211h13.337v1.314h-13.337Zm0-10.042h13.352v1.324h-13.352Zm13.337-3.709h-13.335v-1.32h13.335Zm-13.326,1.206h13.337v1.316h-13.337Zm-.008,5.017h13.345v1.318h-13.345Zm13.335,3.827h-13.337v-1.316h13.337Zm-13.324,1.206h13.335v1.318h-13.335Z" transform="translate(-1099.38 -212.913)"/>
</svg>
