<svg xmlns="http://www.w3.org/2000/svg" width="32" height="32" viewBox="0 0 32 32">
  <path id="Контур_6" data-name="Контур 6" d="M448.078,214.025a4.548,4.548,0,0,1-.479-.112h-2.133a32.6,32.6,0,0,0-4.788,1.162,15.47,15.47,0,0,0-9.873,12.036c-.113.574-.182,1.157-.272,1.736v2.133a30.981,30.981,0,0,0,1.137,4.715,15.471,15.471,0,0,0,13.322,10.1,3.957,3.957,0,0,1,.474.115H447.6c1.131-.218,2.288-.347,3.389-.668a15.815,15.815,0,0,0,11.429-13.724,5.085,5.085,0,0,1,.115-.541v-2.133a28.652,28.652,0,0,0-.823-3.855C459.416,218.571,454.873,214.883,448.078,214.025Zm-1.6,30.03a14.142,14.142,0,1,1,14.194-14.091A14.156,14.156,0,0,1,446.479,244.055Zm6.342-7.275-1.477,1.2c-.507-.526-1.131-1.189-1.772-1.834-1.2-1.209-2.42-2.4-3.612-3.618a1.168,1.168,0,0,1-.343-.714c-.021-3.361-.013-6.723-.01-10.084a1.537,1.537,0,0,1,.049-.25h1.807v.791c0,2.864-.013,5.729.018,8.593a1.553,1.553,0,0,0,.408.97C449.49,233.48,451.126,235.09,452.82,236.78Z" transform="translate(-430.532 -213.913)"/>
</svg>
