<svg xmlns="http://www.w3.org/2000/svg" width="31.815" height="32" viewBox="0 0 31.815 32">
  <path id="Контур_7" data-name="Контур 7" d="M697.163,244.719a.962.962,0,0,0,.248.669,1.385,1.385,0,0,0,1.059.526q13.777-.013,27.554,0a1.111,1.111,0,0,0,.793-.3,4.606,4.606,0,0,0,.476-.548.344.344,0,0,0,.044-.2q.02-3.3.036-6.593c0-.07,0-.14,0-.223.1-.018.2-.039.29-.051a1.608,1.608,0,0,0,1.209-.86.256.256,0,0,0,.029-.122q.011-1.981.018-3.962c0-.157-.018-.313-.029-.47a1.329,1.329,0,0,0-1.164-1.152c-.1-.011-.2-.028-.325-.045,0-.06,0-.118,0-.176q-.031-2.833-.064-5.667c0-.33-.024-.66-.06-.988a1.118,1.118,0,0,0-.955-.98c-.445-.049-.9-.054-1.344-.065-.411-.01-.822,0-1.25,0-.005-.076-.013-.144-.014-.212-.016-.8-.036-1.6-.043-2.4a1.405,1.405,0,0,0-.545-1.175.961.961,0,0,0-.567-.212c-.881-.03-1.763-.059-2.644-.1a.406.406,0,0,1-.249-.105q-2.425-2.443-4.841-4.894c-.133-.134-.277-.259-.42-.382a.41.41,0,0,0-.535-.043,2.786,2.786,0,0,0-.444.351c-.689.681-1.37,1.371-2.056,2.054-.157.156-.326.3-.487.454a.194.194,0,0,1-.3,0q-1.672-1.353-3.355-2.692a.774.774,0,0,0-.481-.244.522.522,0,0,0-.465.208c-.684.94-1.379,1.874-2.06,2.816-.57.789-1.13,1.586-1.688,2.384a.283.283,0,0,1-.267.132c-1.169,0-2.338.015-3.507.024q-.195,0-.389.011a1.23,1.23,0,0,0-1.2,1.2c-.024.568-.028,1.136-.042,1.7,0,.091-.012.182-.019.273v18.838c.006.1.016.193.018.29C697.138,242.771,697.155,243.745,697.163,244.719Zm30.458-11.9v3.843c-2.854-.012-5.711.026-8.609-.046.023-1.319.046-2.6.069-3.891Zm-6.739-9.879c.236-.237.48-.47.695-.726a.6.6,0,0,0-.016-.923c-.143-.168-.3-.324-.469-.5h1.239v2.72h-2.04C720.5,223.306,720.7,223.128,720.881,222.942Zm-6.793-7.4,6.033,6.206c-.108.126-.182.225-.268.311q-.7.7-1.41,1.39a.267.267,0,0,1-.171.063q-5.925-.011-11.85-.029c-.036,0-.071,0-.143-.008Zm-7.231.028,2.938,2.382c-.3.317-.577.614-.86.9q-2.239,2.282-4.484,4.559a.308.308,0,0,1-.187.1c-.963,0-1.925-.017-2.888-.029-.037,0-.074-.007-.168-.017Zm-8.37,5.212h2.995l-.888,1.258c-.321.455-.638.912-.965,1.363a.281.281,0,0,1-.191.1c-.313.011-.626,0-.952,0Zm-.009,4.07,27.575.049v6.53h-.2c-2.295,0-4.59,0-6.885-.006a.911.911,0,0,0-.629.2,6.9,6.9,0,0,0-.581.625.2.2,0,0,0-.031.121q0,2.143,0,4.287a2.028,2.028,0,0,0,.042.37,1.234,1.234,0,0,0,1.059.934q1.752.049,3.506.062c1.185.01,2.371,0,3.556,0h.179c-.029,2.191-.058,4.364-.087,6.561l-27.506-.089Zm21.978,9.83a.93.93,0,0,1,.932-.906.911.911,0,0,1,.946.955.94.94,0,1,1-1.878-.049Z" transform="translate(-697.105 -213.914)"/>
</svg>
