<svg xmlns="http://www.w3.org/2000/svg" width="24" height="21.961"><path id="Контур_2" data-name="Контур 2" d="M1034.38 923.9h-1.813l-.061-.02c-.052-.017-.1-.036-.157-.055a1.735 1.735 0 00-.247-.077 10.878 10.878 0 01-8.868-7.98c-.124-.4-.208-.814-.289-1.212-.036-.18-.073-.36-.113-.539l-.01-.044v-2.219l.021-.063a3.41 3.41 0 01.059-.159 1.154 1.154 0 00.071-.217 10.95 10.95 0 018.235-9.073c.4-.1.809-.169 1.156-.225a9.355 9.355 0 012.776.051l.317.063a12.919 12.919 0 012.84.788 10.559 10.559 0 016.439 8.781 2.386 2.386 0 00.058.27h1.546a.484.484 0 01.36.806l-2.932 3.29-2.9-3.267a.484.484 0 01.361-.8h1.445c-.033-.153-.064-.3-.094-.451a12.091 12.091 0 00-.442-1.726 8.866 8.866 0 10-9.614 11.844c.136.021.277.032.426.043a4.458 4.458 0 01.731.1c.5.122.973.288 1.075.678a1.346 1.346 0 01-.177.9c-.04.089-.078.172-.1.246zm-1.682-.811h1.121l.02-.044a2.349 2.349 0 00.12-.3 2.39 2.39 0 00-.473-.154 3.812 3.812 0 00-.6-.078 6.515 6.515 0 01-.486-.05 9.673 9.673 0 1110.5-12.926 12.738 12.738 0 01.475 1.842c.062.3.126.61.2.926l.119.5h-1.735l1.813 2.041 1.84-2.066h-1.454l-.073-.313c-.021-.088-.04-.166-.059-.238a3.522 3.522 0 01-.091-.426 9.794 9.794 0 00-5.968-8.146 12.147 12.147 0 00-2.663-.732l-.32-.063a8.525 8.525 0 00-2.487-.045c-.331.053-.719.12-1.092.212a10.142 10.142 0 00-7.626 8.4 1.778 1.778 0 01-.117.393l-.025.063v1.992c.038.17.073.341.107.511a11.6 11.6 0 00.269 1.134 10 10 0 008.247 7.423 2.421 2.421 0 01.37.111zm8.773-10.828zm-2.039 11.091a2.841 2.841 0 01-1.218-.272 8.8 8.8 0 01-2.123-1.574 35.232 35.232 0 01-7.3-9.84c-.1-.2-.19-.4-.281-.609-1.439-3.324-.266-4.021 2.3-5.55a1.38 1.38 0 011.531.389c.706.991 1.335 2.026 1.942 3.026a1.227 1.227 0 01-.452 1.772c-.3.19-.6.378-.914.572l-.031.019a25.242 25.242 0 004.971 6.314c.553-.515.964-.813 1.424-.8.5.017.836.383 1.343.937l.249.271q.8.861 1.6 1.726a1.358 1.358 0 01.415 1.02 1.247 1.247 0 01-.492.882c-.13.108-.258.218-.387.329a7.553 7.553 0 01-1.719 1.218 2.075 2.075 0 01-.858.174zm-8.173-16.978c-2.444 1.454-2.947 1.775-1.855 4.3.084.194.172.385.261.566a34.257 34.257 0 007.1 9.568 7.885 7.885 0 001.883 1.405 1.707 1.707 0 001.24.089 6.734 6.734 0 001.49-1.072c.134-.115.267-.229.4-.34.051-.042.137-.124.142-.2a.489.489 0 00-.16-.3q-.795-.863-1.593-1.723l-.255-.277c-.239-.261-.566-.618-.657-.621-.167 0-.779.587-.981.781a.615.615 0 01-.33.159l-.231.075-.209-.193a26.171 26.171 0 01-5.683-7.259l-.2-.4.8-.5c.309-.192.609-.379.908-.568.276-.175.232-.295.141-.446-.595-.98-1.21-1.993-1.891-2.95a.761.761 0 00-.32-.09z" transform="translate(-1022.822 -901.942)" fill="#000"/></svg>