<svg xmlns="http://www.w3.org/2000/svg" width="200" height="81.284" viewBox="0 0 200 81.284">
  <path id="Контур_5" data-name="Контур 5" d="M1097.78,47.856h5.3c-.133.286-.254.579-.4.857q-5.342,10.156-10.69,20.309l-8.057,15.3c-.665,1.263-1.325,2.53-2,3.786a.769.769,0,0,0-.015.826q4.449,8.416,8.871,16.845t8.874,16.841c.08.152.166.3.285.517l18.215-34.6q-.93-1.768-1.85-3.517-3.968-7.533-7.945-15.062a.888.888,0,0,1,.014-.966c.736-1.345,1.436-2.71,2.15-4.067.122-.232.251-.46.42-.769.329.618.624,1.166.914,1.717q4.509,8.563,9.017,17.127c.887,1.685,1.76,3.377,2.669,5.05a.9.9,0,0,1-.005.969q-2.544,4.786-5.059,9.587-4.113,7.816-8.222,15.633-3.842,7.3-7.688,14.6c-.049.093-.108.181-.178.3h-5l-21.309-40.6q.988-1.884,1.984-3.782,4.678-8.893,9.357-17.784,4.5-8.54,9-17.077c.279-.53.573-1.054.83-1.595A.748.748,0,0,1,1097.78,47.856Zm12.194.054c-.369-.046-.555.129-.725.452q-5.2,9.9-10.417,19.8Q1093.6,78.1,1088.353,88.04a.932.932,0,0,0,.012,1.012c.546.987,1.062,1.99,1.587,2.989q5.394,10.248,10.788,20.5c.052.1.118.193.2.324a2,2,0,0,0,.156-.21c.839-1.59,1.669-3.185,2.52-4.769a.64.64,0,0,0-.049-.683q-1.546-2.921-3.082-5.848-3.276-6.223-6.559-12.443a.673.673,0,0,1,0-.723c.922-1.726,1.818-3.465,2.73-5.2q3.967-7.533,7.938-15.064,3.586-6.807,7.172-13.615c.052-.1.112-.192.211-.359l18.21,34.588-21.365,40.588h5.629l21.361-40.577c-.09-.18-.167-.339-.248-.495l-9.289-17.7q-5.467-10.418-10.936-20.837c-.294-.56-.614-1.108-.922-1.661h-4.238A.575.575,0,0,1,1109.974,47.91Zm149.145,35.908h2.1c.689,0,1.377,0,2.066,0s1.4.007,2.147.011V96.96h4.228v-4.4c0-1.446,0-2.892,0-4.339s-.016-2.91.013-4.4h.654c1.712,0,3.425,0,5.137,0a4.8,4.8,0,0,0,.619-.081V80.558l-17.021.006A15.516,15.516,0,0,0,1259.119,83.818Zm-62.291-3.15q0,5.106,0,10.242c0,.011-.021.024-.035.031a.375.375,0,0,1-.063.018c-.091-.1-.19-.2-.283-.3q-4.326-4.864-8.645-9.733a.958.958,0,0,0-.81-.372c-1.112.022-2.224.007-3.336.01-.152,0-.3.02-.45.03V96.959h4.2V86.6l.12-.028c.119.128.239.254.356.385q4.309,4.843,8.613,9.692a.909.909,0,0,0,.768.352c1.112-.021,2.224-.007,3.336-.01.152,0,.3-.022.455-.034V80.6A24.827,24.827,0,0,0,1196.828,80.668ZM1157.526,91l3.464,5.947c-.218.02-.35.042-.483.042-1.323,0-2.647-.007-3.97.008a.618.618,0,0,1-.623-.362c-.8-1.408-1.628-2.8-2.446-4.2-.106-.181-.216-.359-.324-.537h-5.113c-.034.568-.012,1.126-.016,1.683s0,1.093,0,1.639v1.75H1143.8V80.6c.137-.013.272-.036.407-.036,3.476,0,6.953-.019,10.429.007a6.631,6.631,0,0,1,3.621,1.012,4.806,4.806,0,0,1,2.139,3.6,5.509,5.509,0,0,1-2.56,5.581C1157.738,90.838,1157.642,90.912,1157.526,91Zm-1.786-4.981c-.072-1.523-.767-2.234-2.285-2.207-1.624.029-3.248.006-4.873.008-.171,0-.343.016-.534.026V88.57a1.952,1.952,0,0,0,.235.031c1.96,0,3.92,0,5.879,0a1.264,1.264,0,0,0,1.1-.62A3.126,3.126,0,0,0,1155.74,86.018Zm60.8-5.427,7.222,16.373h-4.853l-1.095-2.741h-8.283l-1.095,2.739h-4.852l7.219-16.371Zm-.023,10.322-2.787-7.075-.119.006-2.783,7.068Zm-47.236-.541c1.437,0,2.884,0,4.33,0s2.912.02,4.4-.016c.019-1.121.017-2.168,0-3.272h-8.8V83.81h9.8V80.6h-14.037V96.962h14.251V93.715h-9.985A16.149,16.149,0,0,1,1169.277,90.372Zm73.455-9.783h-4.186c-.013.163-.031.3-.033.438-.007.582-.013,1.163-.013,1.745,0,2.821-.017,5.643.01,8.464a1.822,1.822,0,0,1-.992,1.728,5.02,5.02,0,0,1-.861.4,7.573,7.573,0,0,1-3.709.266,5.046,5.046,0,0,1-1.792-.611,1.956,1.956,0,0,1-1.073-1.85c.033-3.315.013-6.63.013-9.945v-.639h-4.209a1.845,1.845,0,0,0-.03.21q0,5.581,0,11.162c0,.07,0,.141.009.211a4.538,4.538,0,0,0,1.9,3.505,7.137,7.137,0,0,0,1.623.87,13.463,13.463,0,0,0,5.515.755c.493-.027.986-.075,1.476-.129a11.1,11.1,0,0,0,3.476-.856,4.518,4.518,0,0,0,2.7-3.128,8.164,8.164,0,0,0,.2-1.832c.019-3.438.01-6.877.007-10.315C1242.769,80.887,1242.745,80.736,1242.732,80.59Zm8.976.008h-4.2V96.955h13.528V93.713h-9.323Z" transform="translate(-1076.082 -47.856)"/>
</svg>
