<svg xmlns="http://www.w3.org/2000/svg" width="47.025" height="64"><path id="Контур_1" data-name="Контур 1" d="M440.6 322.093q-3.025 5.748-6.053 11.494c-.039.073-.085.143-.14.235h-3.939l-16.778-31.964 1.562-2.977 7.368-14q3.54-6.724 7.084-13.446c.22-.417.451-.829.653-1.255a.589.589 0 01.418-.355h4.171c-.1.225-.2.456-.315.675q-4.206 8-8.417 15.991l-6.344 12.048c-.524.995-1.043 1.992-1.578 2.981a.6.6 0 00-.011.65q3.5 6.627 6.985 13.263t6.987 13.26c.063.12.131.238.224.407l14.342-27.241-1.456-2.769q-3.124-5.932-6.256-11.859a.7.7 0 01.011-.761c.58-1.059 1.13-2.134 1.693-3.2.1-.182.2-.362.331-.605.259.487.492.918.72 1.352l7.1 13.485c.7 1.327 1.386 2.659 2.1 3.976a.707.707 0 010 .763q-2 3.768-3.983 7.548-3.247 6.149-6.479 12.304zm19.92-20.62l-7.32-13.937q-4.3-8.2-8.61-16.406c-.232-.441-.483-.872-.726-1.308h-3.337a.454.454 0 01-.158.043c-.291-.036-.437.1-.571.356q-4.092 7.8-8.2 15.587-4.122 7.829-8.251 15.654a.733.733 0 00.009.8c.43.777.836 1.567 1.25 2.353l8.494 16.138c.041.079.093.152.156.255a1.6 1.6 0 00.123-.165c.66-1.252 1.314-2.508 1.984-3.755a.5.5 0 00-.039-.538q-1.217-2.3-2.426-4.6-2.58-4.9-5.164-9.8a.53.53 0 010-.569c.726-1.359 1.432-2.728 2.149-4.092q3.123-5.932 6.25-11.861l5.647-10.72c.041-.077.088-.151.166-.283l14.338 27.233-16.822 31.958h4.432l16.819-31.949-.197-.394z" transform="translate(-413.686 -269.822)" fill="#fff"/></svg>