<svg xmlns="http://www.w3.org/2000/svg" width="48" height="48" viewBox="0 0 48 48">
  <path id="Контур_8" data-name="Контур 8" d="M961.638,413.5H929.362a7.871,7.871,0,0,0-7.862,7.862v32.275a7.871,7.871,0,0,0,7.862,7.862h32.276a7.871,7.871,0,0,0,7.862-7.862V421.362A7.871,7.871,0,0,0,961.638,413.5Zm5.165,40.138a5.171,5.171,0,0,1-5.165,5.166H929.362a5.171,5.171,0,0,1-5.166-5.166V421.362a5.171,5.171,0,0,1,5.166-5.166h32.276a5.171,5.171,0,0,1,5.165,5.166Zm-33.02-11.174v-15.92h-5.339v-2.686h.68c2.232,0,5.533-1.327,5.986-4.045h4.013v22.651Zm2.759,7.564V447.6H935.4v2.432h-.712v-3.019h2.562v3.019Zm2.412-.587h1.716v.587h-2.428v-3.019h2.385v.586h-1.673v.613h1.474v.556h-1.474Zm3.18-.453h.677c.366,0,1.155-.061,1.155-1,0-.746-.525-.975-1.138-.975h-1.406v3.019h.712Zm0-1.393h.556c.16,0,.509-.017.509.393,0,.293-.173.414-.509.414h-.556Zm5.047.181c0-.328-.143-.768-.932-.768h-1.514v3.019h1.436c.539,0,1.156-.116,1.156-.846a.745.745,0,0,0-.643-.772v0A.629.629,0,0,0,947.182,447.776Zm-1.734-.181h.625c.315,0,.384.168.384.293a.311.311,0,0,1-.354.31h-.655Zm.737,1.846h-.737v-.685h.647c.259,0,.483.06.483.345A.361.361,0,0,1,946.186,449.441Zm2.012-2.432v3.019h1.457c.694,0,1.087-.28,1.087-.936,0-.457-.208-.988-1.083-.988h-.75v-1.1Zm1.294,1.682c.289,0,.483.082.483.375,0,.272-.177.375-.462.375h-.6v-.75Zm2.19,1.337h-.711v-3.019h.711Zm2.905-3.019h.711v3.019h-.711v-1.971l-1.2,1.971h-.711v-3.019h.711v1.949Zm-.229-.742h.478c-.039.565-.707.6-.854.6-.224,0-.824-.06-.854-.6h.478c0,.147.108.289.375.289S954.353,446.418,954.358,446.267ZM928.529,452.4l-1.13,3.019h.75l.19-.565h1.1l.194.565h.755l-1.134-3.019Zm-.035,1.941.4-1.151.388,1.151Zm4.444-.539v0a.629.629,0,0,0,.5-.629c0-.328-.142-.767-.932-.767h-1.514v3.019h1.436c.539,0,1.155-.116,1.155-.846A.745.745,0,0,0,932.938,453.8Zm-1.238-.815h.625c.315,0,.384.168.384.293a.311.311,0,0,1-.354.31H931.7Zm.737,1.846H931.7v-.686h.646c.259,0,.483.06.483.345A.361.361,0,0,1,932.438,454.834Zm1.744-2.432h2.536v.586h-.91v2.432H935.1v-2.432h-.914Zm4.413-.086a1.6,1.6,0,0,0,0,3.191,1.6,1.6,0,0,0,0-3.191Zm0,2.6c-.4,0-.759-.22-.759-1.009,0-.69.271-1.009.759-1.009.729,0,.76.742.76,1.009S939.319,454.92,938.594,454.92Zm4.81-2.518h1v3.019h-.712v-2.157h-.012l-.755,2.157h-.483l-.754-2.157h-.013v2.157h-.712V452.4h1l.721,2.074Zm3.375-.086a1.6,1.6,0,0,0,0,3.191,1.6,1.6,0,0,0,0-3.191Zm0,2.6c-.4,0-.759-.22-.759-1.009,0-.69.272-1.009.759-1.009.729,0,.759.742.759,1.009S947.5,454.92,946.779,454.92Zm3.81-1.4h-.729v-.534h1.635V452.4h-2.346v3.019h1.44c.7,0,1.147-.293,1.147-.91A.994.994,0,0,0,950.589,453.523Zm-.151,1.311h-.578v-.724h.591c.172,0,.517.022.517.384C950.968,454.778,950.719,454.834,950.438,454.834Zm4.042-2.432h.712v3.019h-.712V453.45l-1.2,1.971h-.711V452.4h.711v1.949Zm2.158,0h2.234v3.019h-.712v-2.432h-.849l-.022,1.052c-.013.582-.108,1.556-1.375,1.38v-.587c.668.086.694-.483.7-.992Zm4.686,1.1h-.751v-1.1h-.711v3.019h1.458c.715,0,1.091-.28,1.091-.936C962.41,454.028,962.2,453.5,961.324,453.5Zm-.147,1.336h-.6v-.75h.582c.3,0,.488.1.488.375S961.47,454.834,961.177,454.834Zm1.046-19.218a3.259,3.259,0,0,1,1.075,2.424v3.236h-4.854v-.539a3.775,3.775,0,1,0-7.551,0l0,.537-.536,0h-9.708V440.2h9.2a4.852,4.852,0,0,1,9.644,0h2.729v-2.157a2.19,2.19,0,0,0-.742-1.643c-2.577-2.463-10.48-2.137-10.56-2.133l-.14.007-.125-.063c-.195-.1-.545-.281-1-.517-1.509-.792-6.1-3.2-6.854-3.2h-2.157V429.41H942.8c.848,0,3.444,1.272,7.355,3.325.359.188.653.343.854.446C952.169,433.142,959.488,433,962.222,435.616Zm-4.318,5.12a3.236,3.236,0,1,0-3.236,3.236A3.239,3.239,0,0,0,957.9,440.736Zm-5.393,0a2.157,2.157,0,1,1,2.157,2.157A2.159,2.159,0,0,1,952.511,440.736Z" transform="translate(-921.5 -413.5)" fill="#fff"/>
</svg>
