<svg xmlns="http://www.w3.org/2000/svg" width="48" height="48" viewBox="0 0 48 48">
  <path id="Контур_9" data-name="Контур 9" d="M1081.054,413.5h-32.276a7.871,7.871,0,0,0-7.862,7.862v32.275a7.871,7.871,0,0,0,7.862,7.862h32.276a7.871,7.871,0,0,0,7.862-7.862V421.362A7.871,7.871,0,0,0,1081.054,413.5Zm5.165,40.138a5.171,5.171,0,0,1-5.165,5.166h-32.276a5.171,5.171,0,0,1-5.166-5.166V421.362a5.171,5.171,0,0,1,5.166-5.166h32.276a5.17,5.17,0,0,1,5.165,5.166Zm-36.2-5.064c0-1.591,1.164-1.651,1.453-1.651,1.069,0,1.341.668,1.363,1.113h-.7a.565.565,0,0,0-.629-.526c-.161,0-.721.03-.721,1.039,0,.57.26.979.742.979a.6.6,0,0,0,.634-.565h.707a1.222,1.222,0,0,1-1.372,1.152A1.352,1.352,0,0,1,1050.023,448.574Zm4.331-.979v.613h1.475v.556h-1.475v.677h1.717v.587h-2.427v-3.019h2.384v.586Zm4.909-.586h1v3.019h-.711v-2.157h-.013l-.755,2.157h-.482l-.756-2.157h-.012v2.157h-.711v-3.019h1l.721,2.074Zm2.7.586v.613h1.475v.556h-1.475v.677h1.716v.587h-2.428v-3.019h2.385v.586Zm4.154-1.328h.479c-.039.565-.708.6-.854.6-.224,0-.823-.06-.853-.6h.478c0,.147.108.289.375.289S1066.115,446.418,1066.12,446.267Zm-.975,3.761h-.711v-3.019h.711v1.949l1.2-1.949h.711v3.019h-.711v-1.971Zm3.616-3.019v1.134h1.1v-1.134h.711v3.019h-.711v-1.3h-1.1v1.3h-.712v-3.019Zm5.34,2.083c0-.457-.207-.987-1.083-.987h-.75v-1.1h-.712v3.019h1.458C1073.709,450.027,1074.1,449.747,1074.1,449.092Zm-1.833.349v-.75h.582c.289,0,.484.082.484.375,0,.272-.177.375-.462.375Zm2.061-2.432h.711v3.019h-.711Zm3.616,0h.711v3.019h-.711v-1.971l-1.2,1.971h-.711v-3.019h.711v1.949Zm-.979-.742c0,.147.108.289.375.289s.371-.138.375-.289h.479c-.039.565-.707.6-.854.6-.224,0-.823-.06-.854-.6Zm-29.021,6.135-1.131,3.019h.751l.189-.565h1.1l.194.565h.754l-1.134-3.019Zm-.035,1.941.4-1.152.388,1.152Zm4.443-.539v0a.628.628,0,0,0,.5-.629c0-.328-.141-.768-.931-.768H1050.4v3.019h1.436c.539,0,1.156-.116,1.156-.846A.745.745,0,0,0,1052.354,453.8Zm-1.237-.815h.625c.315,0,.384.168.384.293a.311.311,0,0,1-.354.31h-.655Zm.737,1.846h-.737v-.685h.646c.259,0,.484.06.484.345A.361.361,0,0,1,1051.854,454.834Zm1.744-2.432h2.535v.586h-.91v2.432h-.711v-2.432h-.914Zm4.413-.086a1.6,1.6,0,0,0,0,3.191,1.6,1.6,0,0,0,0-3.191Zm0,2.6c-.4,0-.758-.22-.758-1.009,0-.69.271-1.009.758-1.009.728,0,.759.742.759,1.009S1058.735,454.92,1058.011,454.92Zm4.811-2.518h1v3.019h-.711v-2.157h-.013l-.754,2.157h-.483l-.754-2.157h-.013v2.157h-.711V452.4h1l.72,2.074Zm3.375-.086a1.6,1.6,0,0,0,0,3.191,1.6,1.6,0,0,0,0-3.191Zm0,2.6c-.4,0-.76-.22-.76-1.009,0-.69.272-1.009.76-1.009.728,0,.759.742.759,1.009S1066.919,454.92,1066.2,454.92Zm3.809-1.4h-.729v-.534h1.635V452.4h-2.346v3.019H1070c.7,0,1.147-.293,1.147-.91A1,1,0,0,0,1070,453.523Zm-.151,1.311h-.578v-.724h.591c.172,0,.517.022.517.383C1070.384,454.778,1070.134,454.834,1069.854,454.834Zm4.042-2.432h.711v3.019h-.711V453.45l-1.2,1.971h-.711V452.4h.711v1.949Zm2.158,0h2.234v3.019h-.712v-2.432h-.849l-.021,1.052c-.014.582-.108,1.557-1.376,1.38v-.587c.669.086.694-.483.7-.992Zm4.685,1.1h-.75v-1.1h-.712v3.019h1.458c.715,0,1.091-.28,1.091-.936C1081.827,454.028,1081.619,453.5,1080.74,453.5Zm-.146,1.336h-.6v-.75h.582c.3,0,.488.1.488.375S1080.886,454.834,1080.593,454.834Zm1.045-19.218a3.258,3.258,0,0,1,1.076,2.424v3.236h-4.854v-.539a3.775,3.775,0,1,0-7.551,0l0,.537-4.124,0V440.2h3.079a4.852,4.852,0,0,1,9.645,0h2.728v-2.157a2.19,2.19,0,0,0-.742-1.643c-2.577-2.463-10.479-2.137-10.56-2.133l-.14.006-.126-.063c-.194-.1-.544-.281-.994-.517-.818-.429-1.971-1.034-3.117-1.607l-.04-1.252c1.153.576,2.835,1.472,3.658,1.9.359.188.653.342.853.445C1071.586,433.142,1078.9,433,1081.638,435.616Zm-7.554,1.884a3.236,3.236,0,1,0,3.236,3.236A3.24,3.24,0,0,0,1074.084,437.5Zm0,5.393a2.157,2.157,0,1,1,2.158-2.157A2.159,2.159,0,0,1,1074.084,442.893Zm-16.608-18.778a1.93,1.93,0,1,1,1.93,1.931A1.933,1.933,0,0,1,1057.476,424.115Zm2.837,18.778a.675.675,0,0,1-.674-.674v-4.434h-.465v4.434a.674.674,0,1,1-1.348,0v-4.434h-1.24a.873.873,0,0,1-.876-1.263l2.243-6.016-.024-.016a2.225,2.225,0,0,1-.221-.175l-.041-.037-1.45,3.92a.645.645,0,0,1-.6.421.644.644,0,0,1-.6-.867l2.148-5.806a2.469,2.469,0,0,1,4.5,0l1.148,3.1a1.48,1.48,0,0,0,.542,1.779,2.274,2.274,0,0,0-1.051.553l-1.15-3.108-.04.037a2.25,2.25,0,0,1-.221.175l-.024.016,1.179,3.161a2.538,2.538,0,0,0-.517,1.551v.037h0c0,.017,0,.035,0,.051l0,2.478h-.534v4.434A.675.675,0,0,1,1060.313,442.893Zm4.039-.64v-3.436a.163.163,0,0,0-.18-.146.155.155,0,0,0-.173.146v3.436c0,.389-.213.64-.541.64a.577.577,0,0,1-.559-.641l.013-7.019v-.017a.134.134,0,0,0-.269,0v2.888a.415.415,0,1,1-.826,0c0-.027,0-2.888,0-2.888a2.087,2.087,0,0,1,1.631-2.1,4.339,4.339,0,0,1,.744-.042,6.145,6.145,0,0,1,.708.042,2.088,2.088,0,0,1,1.629,2.1s0,2.861,0,2.888a.415.415,0,1,1-.826,0v-2.89a.135.135,0,0,0-.269,0v.012l.014,7.021a.577.577,0,0,1-.559.641C1064.564,442.893,1064.351,442.642,1064.351,442.253Zm-1.36-10.644a1.184,1.184,0,1,1,1.184,1.185A1.186,1.186,0,0,1,1062.991,431.609Zm-11.419-8.564a1.93,1.93,0,1,1,1.93,1.931A1.933,1.933,0,0,1,1051.572,423.046Zm1.93,11.886a.262.262,0,0,0-.262.262v6.646a.978.978,0,0,1-.963,1.054,1.059,1.059,0,0,1-1.061-1.054l0-1.065a.782.782,0,0,0,.411-.3.857.857,0,0,0,.07-.8l0-.007-.031-.07a.632.632,0,0,0,.084.005.669.669,0,0,0,.61-.945l-1.133-2.508.013-7.183,0-.026a.194.194,0,0,0-.388,0v5.155a.761.761,0,0,1-.352.639,1.676,1.676,0,0,0-.62-.4,1.444,1.444,0,0,0-.539-2.718c0-1.207,0-2.677,0-2.677a3.493,3.493,0,0,1,2.783-3.414,9.717,9.717,0,0,1,1.408-.067c.308,0,1.018.023,1.35.067a3.477,3.477,0,0,1,2.326,1.691,2.106,2.106,0,0,0-.33.622l-.722,1.952v-.828l0-.026a.194.194,0,0,0-.388,0v.022l0,1.878-1.036,2.8a.939.939,0,0,0,.881,1.265.967.967,0,0,0,.162-.014v.594l-.344.924a1.236,1.236,0,0,0,.1,1.165,1.073,1.073,0,0,0,.253.256l.007,4a1.059,1.059,0,0,1-1.061,1.054.978.978,0,0,1-.962-1.054V435.2A.263.263,0,0,0,1053.5,434.932Zm-5.446-1.867a1.15,1.15,0,1,1,1.15,1.151A1.151,1.151,0,0,1,1048.056,433.065Zm-1.4,6.249a.373.373,0,0,1-.34-.527l1.552-3.438a1.484,1.484,0,0,1,2.663,0l1.554,3.44a.373.373,0,0,1-.34.527.375.375,0,0,1-.34-.219l-1.085-2.4-.038.039a1.341,1.341,0,0,1-.146.13l-.023.018,1.306,2.907a.512.512,0,0,1-.516.74h-.763V442.5a.392.392,0,1,1-.783,0v-1.975h-.31V442.5a.392.392,0,0,1-.784,0v-1.975h-.763a.512.512,0,0,1-.515-.742l1.305-2.9-.023-.018a1.32,1.32,0,0,1-.146-.13l-.038-.039-1.085,2.4A.375.375,0,0,1,1046.661,439.314Z" transform="translate(-1040.916 -413.5)" fill="#fff"/>
</svg>
