<svg xmlns="http://www.w3.org/2000/svg" width="48" height="48" viewBox="0 0 48 48">
  <path id="Контур_7" data-name="Контур 7" d="M1200.471,414.114h-32.276a7.871,7.871,0,0,0-7.862,7.862v32.276a7.871,7.871,0,0,0,7.862,7.862h32.276a7.871,7.871,0,0,0,7.862-7.862V421.976A7.871,7.871,0,0,0,1200.471,414.114Zm5.166,40.138a5.172,5.172,0,0,1-5.166,5.166h-32.276a5.171,5.171,0,0,1-5.165-5.166V421.976a5.171,5.171,0,0,1,5.165-5.165h32.276a5.171,5.171,0,0,1,5.166,5.165Zm-9.986-21.261h-6.194V426.8a2.977,2.977,0,0,0-2.974-2.974h-4.3a2.977,2.977,0,0,0-2.974,2.974v6.195h-6.194a2.977,2.977,0,0,0-2.974,2.974v4.3a2.978,2.978,0,0,0,2.974,2.974h6.194v6.194a2.978,2.978,0,0,0,2.974,2.974h4.3a2.978,2.978,0,0,0,2.974-2.974v-6.194h6.194a2.978,2.978,0,0,0,2.974-2.974v-4.3A2.977,2.977,0,0,0,1195.651,432.99Zm1.356,7.273a1.358,1.358,0,0,1-1.356,1.356h-7.812v7.812a1.358,1.358,0,0,1-1.356,1.356h-4.3a1.358,1.358,0,0,1-1.356-1.356V441.62h-7.812a1.358,1.358,0,0,1-1.357-1.356v-4.3a1.358,1.358,0,0,1,1.357-1.356h7.812V426.8a1.358,1.358,0,0,1,1.356-1.356h4.3a1.358,1.358,0,0,1,1.356,1.356v7.813h7.812a1.357,1.357,0,0,1,1.356,1.356Z" transform="translate(-1160.333 -414.114)" fill="#fff"/>
</svg>
