<svg xmlns="http://www.w3.org/2000/svg" viewBox="0 0 82 82"><defs><style>.cls-1{fill-rule:evenodd}</style></defs><g id="Слой_2" data-name="Слой 2"><g id="верхняя_плашка" data-name="верхняя плашка"><path class="cls-1" d="M74 74H52v8h30V52h-8v22zM0 30h8V8h22V0H0v30zm52 22v-7h-7.41c0-1.12.29-6.91-.16-7.35s-6.3-.16-7.43-.16V30h-8v8h7c0 1.06-.31 6.51.17 6.94s6.64.14 7.83.14V52z"/><path class="cls-1" d="M52 52v8h7.81c0 1.19-.31 7.36.17 7.84.29.29 7.56.29 7.86 0 .47-.48.1-7.72.08-7.75-.34-.56-6.89-.28-7.92-.28V52zM30 30v-8h-7.81c0-1.19.31-7.36-.17-7.83-.29-.3-7.56-.3-7.86 0-.47.47-.09 7.71-.07 7.74.33.56 6.88.28 7.91.28V30z"/></g></g></svg>