<svg xmlns="http://www.w3.org/2000/svg" viewBox="0 0 710 415"><defs><style>.cls-2{fill:#fff}.cls-4{fill-rule:evenodd}</style></defs><g id="Слой_2" data-name="Слой 2"><g id="верхняя_плашка" data-name="верхняя плашка"><path fill="#fee600" d="M0 0h710v415H0z"/><circle class="cls-2" cx="487.32" cy="179.86" r="80.24" transform="rotate(-73.31 487.343 179.848)"/><path fill-rule="evenodd" stroke="#000" stroke-miterlimit="22.93" stroke-width="1.27" fill="#fff" d="M541.85 227.46l5.34-1.96 54.39-.01 5.31 3.38-10.54 9.44 5.15 5.52 9.11 2.83 7.29 4.31-7.36 8.14-18.13-6.21-2.91 2.91.03 12.02-3.25 3.11-44.43-43.48z"/><path class="cls-4" d="M560.32 251.43L586 277.19l2.87-3c1.58-1.63 2.88-3 2.89-3a16.88 16.88 0 00-1.36-1.55c-.76-.81-1.38-1.53-1.4-1.59a12.3 12.3 0 011.38-1.51l1.41-1.4-1.15-1.21c-1.23-1.29-1.37-1.54-1.18-2a13.09 13.09 0 011.34-1.57L592 259l-1.51-1.52L589 256l1.45-1.45 1.46-1.46 3 3 3 3 1.53-1.52 1.52-1.53 3 3 3 3 .58-.58c.31-.31 1-1 1.48-1.58l.9-1-2.87-2.88-2.88-2.88-.44.33c-.24.2-.75.66-1.12 1s-.91.86-1.19 1.1l-.51.4L598 253l-3-3-1.54 1.54-1.55 1.55-1.57-1.56-1.55-1.53-1.45 1.45-1.46 1.45 1.56 1.57L589 256l-1.57 1.56-1.57 1.57 1.46 1.45 1.45 1.46-1.46 1.45-1.45 1.45 1.53 1.53 1.52 1.53-1.56 1.56-1.57 1.57L564.69 250c-11.61-11.63-21.11-21.18-21.11-21.21s.71-.74 1.56-1.57l1.56-1.51 1.52 1.52 1.53 1.53 1.45-1.45 1.46-1.45 1.45 1.45 1.45 1.46 1.57-1.57 1.57-1.56 1.56 1.57 1.57 1.56 1.45-1.45 1.46-1.45-1.57-1.57-1.56-1.56-1.46 1.45-1.45 1.45-1.45-1.46-1.46-1.45-1.56 1.56-1.57 1.57-1.53-1.53-1.52-1.53-1.46 1.45-1.45 1.45-1.49-1.49-1.49-1.49-1.57 1.56-1.57 1.57-1.52-1.53-1.53-1.53-1.46 1.45-1.45 1.45z"/><path class="cls-4" d="M565.32 226.05c.19.24.81.94 1.37 1.54l1 1.1 1.5-1.49 1.49-1.48 1.56 1.53 1.57 1.52 1.57-1.52 1.56-1.53 1.45 1.46 1.46 1.45 1.45-1.45 1.46-1.45-1.46-1.46-1.45-1.45-1.41 1.4-1.41 1.41-.25-.16a21.11 21.11 0 01-2.39-2l-.73-.73-1.49 1.49-1.49 1.49-1.45-1.46-1.46-1.45-1.41 1.4-1.36 1.42zm17.73-.11c0 .07.69.73 1.45 1.48l1.38 1.34 1.54-1.56 1.54-1.55 1.57 1.58 1.58 1.58 1.13-1.22c1.29-1.4 1.46-1.64 1.37-1.89a18.87 18.87 0 00-1.4-1.57l-1.32-1.39-1.46 1.46-1.43 1.46-1.45-1.46-1.45-1.45-1.53 1.53c-1.22 1.17-1.57 1.56-1.52 1.66zm13.4 1.4l1.46 1.46 1.56-1.57 1.57-1.56 1.56 1.57 1.57 1.56-6 6-6 6 3 3 3 3 1.46-1.45L601 244l3 3 3 3 1.57-1.57 1.56-1.56 3 3 3 3L613 256l-3.14 3.13.37.28a24 24 0 012.38 2l.62.62 3-3 3-3-1.56-1.57-1.57-1.57 1.46-1.45 1.46-1.45-3-3-3-3-1.45 1.45-1.46 1.45-3-3-3-3-1.58 1.57L601 244l-.91-1c-1.3-1.44-1.73-2-1.76-2.21s.78-1 5.8-6.11l5.82-5.91-3-3-3-3-1.46 1.45-1.49 1.45-1.45-1.45-1.46-1.46-1.56 1.56-1.53 1.57 1.45 1.45z"/><path class="cls-2" d="M319.83 38.17v-8H106.17v8h-8v69.66h8v6h117v21h6v8h7v6h14.66v-14.66h-6v-20.34h75v-6h8V38.17z"/><path d="M327.83 38.17v-8h-8v-7H106.17v7h-8v8h-6v69.66h6v6h8v8h109v13h8v8h6v6h7v7h21v6h8.66v-8.66h-7v-19h-8v-12.34h69v-8h8v-6h6V38.17zm-2.66 27.66v39.34h-6v8h-77v21.66h8v12.34h-12.34v-7h-6v-6h-8v-21h-117v-8h-6V38.83h6v-7h212.34v7h6z"/><path d="M416.08 67l-30.42-11a1.86 1.86 0 00-.61-.1 1.8 1.8 0 00-1.69 1.19l-11 30.42a1.1 1.1 0 00-.06.26l-10.91 30.29a1.8 1.8 0 001.08 2.3l30.42 11a1.81 1.81 0 00.61.1 1.79 1.79 0 001.69-1.19l2.83-6.76c.89.46 4.21 3.41 7.41 3.41 1.89 0 3.75-1 5-4.24 3-7.44-6.26-7.13-9.09-7.67l4.77-15.16a1.58 1.58 0 00.09-.42L408.92 89h-.09c-1.16 0-13.21-.18-10.41-9.28a6.36 6.36 0 012.9-4h.06a4.11 4.11 0 01.61-.25 7 7 0 012.11-.3 18.16 18.16 0 016.31 1.46c.61.24 1.24.49 1.91.78.01-.06 4.68-10.06 3.76-10.41zm-31-10.32a.7.7 0 01.25.05l29.77 10.72c0 .09-.05.19-.08.3l-29.54-10.62a1.22 1.22 0 00-1.16.16v-.11a.73.73 0 01.73-.49zm22.51 33l-.09.35c-2.37-.16-6.8-.86-8.88-3.68a2.33 2.33 0 01-.17-.26c2.3 2.79 6.78 3.46 9.11 3.61zm71.91-42.31L472.92 42l.88-.32a6.57 6.57 0 002.85-2 6.66 6.66 0 10-10.3-8.44 6.56 6.56 0 00-1.43 3.2l-.14.92-10.29-8.43a1.23 1.23 0 00-.8-.29 1.25 1.25 0 00-1 .47l-6.95 8.48A8.05 8.05 0 01435.57 48l-3.36 4.09a1.27 1.27 0 00.18 1.78l25 20.5a1.25 1.25 0 00.8.29 1.27 1.27 0 001-.46l20.5-25a1.26 1.26 0 00-.19-1.83zm-140.26 94.28l-29.8-12.56a1.26 1.26 0 00-1.66.68l-3.3 7.84-.56-.75a6.58 6.58 0 00-2.76-2.16 6.66 6.66 0 10-1.7 12.74l.93-.13-5.16 12.26a1.21 1.21 0 00-.05.84 1.24 1.24 0 00.72.81l10.1 4.26a8.05 8.05 0 0114.81 6.24l4.88 2.06a1.28 1.28 0 001.66-.68l12.55-29.8a1.27 1.27 0 000-.84 1.24 1.24 0 00-.66-.81zM564.7 99.57a1.61 1.61 0 01-1.05-.38l-33.11-27.14a1.66 1.66 0 01-.23-2.35l4.44-5.42a10.66 10.66 0 0013.49-16.46l9.21-11.23a1.65 1.65 0 011.29-.61 1.62 1.62 0 011.06.38l13.62 11.16.19-1.22a8.82 8.82 0 1115.53 7 8.9 8.9 0 01-3.78 2.68l-1.16.43 8.71 7.14a1.67 1.67 0 01.23 2.35L566 99a1.67 1.67 0 01-1.3.57z" fill-rule="evenodd" fill="#fff"/><path d="M492.86 173a12.6 12.6 0 01-10.16-5.14 7.18 7.18 0 01-.73-7 7.34 7.34 0 012-2.89l.72-.6-4.06-1.46a1.27 1.27 0 01-.76-1.62l11-30.42a1.28 1.28 0 011.2-.84 1.25 1.25 0 01.42.08L522.66 134c-.08 1.34-2.73 7.36-3.61 9.23-3.38-1.45-5.92-2.12-8-2.12-3.12 0-5.14 1.64-6.18 5-.77 2.49-.55 4.59.67 6.23 2.33 3.16 7.63 3.66 9.65 3.73l-2.54 10.05a1.27 1.27 0 01-1.19.81 1.2 1.2 0 01-.42-.07l-8.49-3.11-.12.61c-1.08 5.47-4.58 8.61-9.61 8.61z" fill-rule="evenodd" fill="#fee600"/><text transform="translate(98.41 143.5)" font-family="OCRF-RegularC" font-size="23.01" stroke="#1f1b20" stroke-miterlimit="5" stroke-width=".48">FREE</text><text transform="translate(125.06 66.5)" font-size="23.65" font-family="OCRF-RegularC">20-22 октября<tspan letter-spacing="-.04em"><tspan x="-3.31" y="23.65">т</tspan><tspan x="8.99" y="23.65" letter-spacing="0">еперь онлайн</tspan></tspan></text></g></g></svg>